<?xml version="1.0" encoding="UTF-8"?>
<svg id="Layer_2" data-name="Layer 2" xmlns="http://www.w3.org/2000/svg" viewBox="0 0 461.7049 440.5533">
  <g id="katman_1" data-name="katman 1">
    <g id="E9ESwK">
      <g>
        <path d="m.1172,168.0987c10.7636,0,21.5278.0732,32.2908-.0127,45.6592-.3642,91.3176-.8537,136.9774-1.0479,4.5197-.0192,6.238-1.5619,7.5747-5.637,17.3733-52.9661,34.9169-105.8762,52.4252-158.798.2056-.6215.5113-1.21,1.1087-2.6031,4.284,12.8235,8.3573,24.9733,12.4023,37.1326,13.8673,41.6847,27.7781,83.3551,41.4933,125.0898,1.2112,3.6858,2.8925,4.7016,6.6618,4.7318,55.1559.4409,110.3105,1.0575,165.4654,1.63,1.324.0137,2.6484.0017,5.188.0017-1.9048,1.5046-2.9414,2.3653-4.0202,3.1695-44.4737,33.151-88.9345,66.3194-133.4734,99.3825-2.4178,1.7949-2.9212,3.3023-2.0161,6.1319,16.7805,52.4584,33.4612,104.9488,50.1629,157.4324.4996,1.5699.9999,3.1395,1.8636,5.851-3.4208-2.3424-6.0377-4.0869-8.6062-5.9001-43.5461-30.7402-87.1208-61.4404-130.5634-92.3264-3.5462-2.5212-5.8094-2.695-9.4272-.1188-45.4554,32.3702-91.0389,64.5606-136.5935,96.7915-.3958.2801-.8446.4854-2.0131,1.1474.8458-2.8649,1.4711-5.1261,2.1794-7.3609,16.3885-51.7086,32.7185-103.436,49.3143-155.078,1.2813-3.9871-.0185-5.5292-2.823-7.6015C91.0767,237.1432,46.526,204.0966,1.9631,171.0663c-.6669-.4944-1.3093-1.0219-1.9631-1.5339.0391-.4779.0781-.9558.1172-1.4337Zm53.2331,18.0086c1.9174,1.5796,2.7436,2.325,3.6338,2.9842,33.731,24.9818,67.4477,49.9831,101.2449,74.8751,2.527,1.8612,3.2654,3.4095,2.2528,6.5525-8.4713,26.2921-16.7514,52.646-25.0718,78.9867-4.597,14.553-9.1606,29.1164-14.1442,44.9626,37.155-26.4952,73.2355-52.2242,109.2619-77.9146,36.3022,25.9356,72.1779,51.5667,108.7551,77.6988-.3652-1.9212-.4612-3.0215-.7861-4.0493-12.4399-39.3453-24.852-78.6995-37.4356-117.9988-1.2339-3.8535-.89-6.0463,2.638-8.6406,33.0103-24.274,65.846-48.7853,98.7288-73.2326,1.3326-.9908,2.6305-2.0283,5.0724-3.9159-3.1317,0-4.6207.0106-6.1095-.0015-41.1571-.3352-82.3139-.7056-123.4716-.9496-3.4277-.0203-5.1823-.7873-6.3848-4.4333-10.6852-32.3996-21.642-64.7097-32.5284-97.0428-2.7084-8.0442-5.4525-16.0763-8.538-25.1683-.7755,2.2711-1.149,3.3569-1.5172,4.4446-13.2835,39.2396-26.6081,78.4654-39.7723,117.7449-1.0775,3.2151-2.4683,4.4027-5.93,4.4141-40.4941.1326-80.9877.4308-121.4814.682-2.3988.0149-4.7978.0019-8.4168.0019Z"/>
        <path d="m121.1262,207.9122c18.7718,0,37.5436,0,56.3154,0,6.8323,0,13.6737-.211,20.4935.0808,4.0435.173,6.0229-.9415,7.3661-5.1123,7.5995-23.5975,15.581-47.072,23.4398-70.5858.4129-1.2352.894-2.4476,1.6535-4.5146,6.3322,19.0249,12.3947,37.2336,18.4526,55.4438,2.2589,6.7902,4.7323,13.5206,6.6675,20.4021,1.011,3.5951,2.8434,4.4515,6.3513,4.4436,25.1617-.0565,50.3238.0944,75.4857.1872.6551.0024,1.3098.0933,2.718.2-1.3318,1.1802-2.1672,2.0318-3.1103,2.7398-19.8483,14.9009-39.6631,29.8474-59.6203,44.6011-2.7134,2.0059-2.8312,3.7512-1.9125,6.6728,7.486,23.8048,14.813,47.6596,22.1777,71.5026.2844.9207.4608,1.8747.9289,3.8126-23.1552-16.3361-45.5284-32.1204-68.0948-48.0411-22.4322,15.8891-44.8283,31.7526-68.2191,48.3207,2.5356-8.4818,4.7308-15.9783,7.0184-23.4465,5.3601-17.4989,10.688-35.0085,16.2233-52.4522.9684-3.0518.4763-4.7329-2.1322-6.6608-20.877-15.4296-41.6358-31.0192-62.4308-46.5598l.2283-1.034Zm163.6481,18.9487c-.1438-.381-.2876-.762-.4313-1.1429h-40.0235c-4.5631-13.3086-9.0229-26.3158-13.8845-40.4952-4.3775,12.638-8.5169,23.8732-12.089,35.2861-1.2621,4.0322-2.9799,5.3863-7.2211,5.2708-11.7195-.319-23.4533-.1104-35.1814-.1104-.0925.3418-.185.6837-.2774,1.0255,10.7708,8.1838,21.5416,16.3676,32.2226,24.4831-4.0132,13.4357-7.8908,26.4177-12.1312,40.614,12.3733-8.5842,23.6588-16.4137,34.905-24.2159,11.2543,7.8871,22.1481,15.5216,34.2401,23.9957-3.8279-12.6414-6.9895-23.8222-10.6607-34.8332-1.4221-4.2651-.97-6.6919,2.9789-9.4082,9.4206-6.48,18.3976-13.6048,27.5537-20.4692Z"/>
      </g>
    </g>
  </g>
</svg>